<svg width="11" height="11" viewBox="0 0 11 11" fill="none" xmlns="http://www.w3.org/2000/svg">
<path d="M10.8061 9.94386L8.39452 7.53124C9.1176 6.58898 9.45518 5.40696 9.3388 4.22495C9.22241 3.04294 8.66077 1.94945 7.7678 1.16631C6.87484 0.383176 5.71742 -0.030974 4.53033 0.00787673C3.34323 0.0467274 2.21537 0.53567 1.37552 1.37552C0.53567 2.21537 0.0467275 3.34323 0.00787673 4.53032C-0.030974 5.71742 0.383176 6.87484 1.16631 7.7678C1.94945 8.66077 3.04294 9.22241 4.22495 9.3388C5.40696 9.45518 6.58898 9.1176 7.53124 8.39452L9.94487 10.8087C10.0016 10.8653 10.0689 10.9103 10.1429 10.941C10.217 10.9717 10.2964 10.9875 10.3765 10.9875C10.4567 10.9875 10.5361 10.9717 10.6101 10.941C10.6842 10.9103 10.7515 10.8653 10.8082 10.8087C10.8648 10.752 10.9098 10.6847 10.9405 10.6106C10.9712 10.5366 10.9869 10.4572 10.9869 10.377C10.9869 10.2969 10.9712 10.2175 10.9405 10.1434C10.9098 10.0694 10.8648 10.0021 10.8082 9.94538L10.8061 9.94386ZM1.23437 4.68749C1.23437 4.00453 1.43689 3.3369 1.81632 2.76904C2.19576 2.20117 2.73506 1.75858 3.36604 1.49722C3.99701 1.23586 4.69132 1.16748 5.36116 1.30072C6.031 1.43396 6.64629 1.76284 7.12922 2.24576C7.61215 2.72869 7.94103 3.34398 8.07427 4.01382C8.20751 4.68366 8.13912 5.37797 7.87776 6.00894C7.6164 6.63992 7.17381 7.17922 6.60595 7.55866C6.03808 7.93809 5.37046 8.14062 4.68749 8.14062C3.77196 8.13968 2.89419 7.77556 2.2468 7.12818C1.59942 6.4808 1.23531 5.60303 1.23437 4.68749Z" fill="#3E394C" fill-opacity="0.5"/>
</svg>
